<?xml version="1.0" standalone="no"?>
<!DOCTYPE svg PUBLIC "-//W3C//DTD SVG 20010904//EN"
 "http://www.w3.org/TR/2001/REC-SVG-20010904/DTD/svg10.dtd">
<svg version="1.0" xmlns="http://www.w3.org/2000/svg"
 width="260.000000pt" height="260.000000pt" viewBox="0 0 260.000000 260.000000"
 preserveAspectRatio="xMidYMid meet">
<metadata>
Created by potrace 1.11, written by Peter Selinger 2001-2013
</metadata>
<g transform="translate(0.000000,260.000000) scale(0.100000,-0.100000)"
fill="#000000" stroke="none">
<path d="M468 2580 c-71 -38 -111 -119 -107 -212 3 -65 13 -95 77 -229 72
-150 81 -209 43 -295 l-20 -44 27 6 c156 37 228 165 186 329 -9 33 -38 103
-66 155 -28 52 -60 113 -72 135 -15 29 -21 58 -21 108 0 37 -2 67 -5 67 -3 -1
-22 -10 -42 -20z"/>
<path d="M1035 2586 c-91 -38 -136 -150 -112 -276 6 -31 50 -136 76 -183 63
-113 74 -205 34 -287 -11 -22 -17 -40 -12 -40 4 0 33 9 64 21 105 39 163 129
157 243 -5 78 -36 155 -142 346 -26 47 -30 64 -29 117 1 35 0 65 -2 67 -2 2
-18 -1 -34 -8z"/>
<path d="M1584 2581 c-68 -31 -114 -110 -114 -195 1 -67 16 -117 75 -241 78
-164 86 -216 45 -299 -11 -22 -18 -41 -16 -43 1 -2 27 5 57 14 63 20 142 92
153 138 29 121 11 200 -89 380 -65 118 -69 128 -68 198 0 37 0 67 -1 67 0 0
-20 -9 -42 -19z"/>
<path d="M95 1586 c-41 -18 -83 -69 -90 -110 -4 -18 -5 -226 -3 -462 4 -414 5
-431 27 -499 76 -234 242 -402 476 -483 l80 -27 485 0 c541 0 544 0 687 70
172 85 306 238 365 416 l21 67 71 4 c293 19 473 361 336 642 -47 98 -160 195
-255 221 -16 5 -33 9 -37 10 -5 2 -28 3 -52 4 -43 1 -44 2 -54 44 -13 50 -55
93 -103 107 -21 6 -390 10 -979 10 -763 -1 -951 -3 -975 -14z m2160 -397 c77
-22 145 -116 145 -199 -1 -91 -107 -190 -205 -190 l-35 0 0 200 0 200 28 0
c15 0 45 -5 67 -11z"/>
</g>
</svg>
